PathFileType	4	(X/Y/Z)	/Users/itak/Documents/Research/Walk-IL/dataset/trc/00143_00007.trc
DataRate	CameraRate	NumFrames	NumMarkers	Units	OrigDataRate	OrigDataStartFrame	OrigNumFrames
100.000000	100.000000	4	53	mm	100.000000	401	535
Frame#	Time	RPSI			LPSI			L3			STRN			T10			C7			CLAV			RBAK			LBAK			LSHO			LUPA			LAEL			LAOL			LWTS			LWPS			LFRA			LIFD			LHPS			LHTS			RSHO			RUPA			RAEL			RAOL			RWTS			RWPS			RFRA			RIFD			RHTS			RHPS			RBHD			LFHD			RFHD			LBHD			LHIP			RHIP			RASI			LASI			LKNE			LTHI			LANK			LTIP			LTOE			LMT1			LMT5			LHEE			RKNE			RTHI			RANK			RTIP			RTOE			RMT1			RMT5			RHEE			
		X1	Y1	Z1	X2	Y2	Z2	X3	Y3	Z3	X4	Y4	Z4	X5	Y5	Z5	X6	Y6	Z6	X7	Y7	Z7	X8	Y8	Z8	X9	Y9	Z9	X10	Y10	Z10	X11	Y11	Z11	X12	Y12	Z12	X13	Y13	Z13	X14	Y14	Z14	X15	Y15	Z15	X16	Y16	Z16	X17	Y17	Z17	X18	Y18	Z18	X19	Y19	Z19	X20	Y20	Z20	X21	Y21	Z21	X22	Y22	Z22	X23	Y23	Z23	X24	Y24	Z24	X25	Y25	Z25	X26	Y26	Z26	X27	Y27	Z27	X28	Y28	Z28	X29	Y29	Z29	X30	Y30	Z30	X31	Y31	Z31	X32	Y32	Z32	X33	Y33	Z33	X34	Y34	Z34	X35	Y35	Z35	X36	Y36	Z36	X37	Y37	Z37	X38	Y38	Z38	X39	Y39	Z39	X40	Y40	Z40	X41	Y41	Z41	X42	Y42	Z42	X43	Y43	Z43	X44	Y44	Z44	X45	Y45	Z45	X46	Y46	Z46	X47	Y47	Z47	X48	Y48	Z48	X49	Y49	Z49	X50	Y50	Z50	X51	Y51	Z51	X52	Y52	Z52	X53	Y53	Z53	

402	4.01	755.8724975585938	1096.968627929688	331.9226379394531	621.8563232421875	1101.844970703125	313.4268188476562	682.9462280273438	1133.425903320312	329.7416076660156	713.982177734375	1345.749877929688	123.3614654541016	664.8685302734375	1281.499267578125	374.7869262695312	645.9150390625	1575.121704101562	349.5126953125	699.970458984375	1478.186401367188	165.3144836425781	725.2294921875	1388.848999023438	411.4933471679688	544.2005615234375	1552.4384765625	329.6142272949219	500.9948120117188	1541.511474609375	228.7507781982422	435.3751831054688	1408.020751953125	208.9935302734375	439.26904296875	1201.285888671875	127.4333953857422	480.1178894042969	1168.274169921875	200.5590209960938	541.6481323242188	1007.329284667969	-44.72370529174805	502.5740356445312	947.3228759765625	10.85402488708496	455.0406799316406	1099.994384765625	70.46197509765625	586.2675170898438	840.8292846679688	-134.2201995849609	518.5985107421875	892.9453125	-46.81394577026367	545.8939208984375	934.1065673828125	-95.31156158447266	835.5778198242188	1563.951049804688	333.7513427734375	894.3041381835938	1491.317993164062	364.7429809570312	918.6876220703125	1198.5927734375	378.2326965332031	824.3867797851562	1194.678955078125	352.7352294921875	957.3013305664062	955.3680419921875	238.5752716064453	964.9552612304688	939.9703979492188	319.7898864746094	942.9767456054688	1126.24853515625	360.4711608886719	955.9505615234375	760.3114013671875	211.5240783691406	973.9476928710938	848.0671997070312	214.1016082763672	981.022705078125	840.1744995117188	286.6771850585938	734.7406616210938	1753.625122070312	324.5917663574219	600.0224609375	1818.03076171875	162.3813018798828	729.4390869140625	1835.003051757812	165.7462921142578	601.7422485351562	1741.04052734375	329.2407836914062	523.9273681640625	1020.814392089844	204.4432525634766	888.7616577148438	1009.279052734375	211.2481231689453	845.6087646484375	1088.283203125	131.6490631103516	579.807373046875	1086.50732421875	102.2041854858398	573.4370727539062	514.1426391601562	218.7122650146484	539.7391357421875	663.6052856445312	220.1455688476562	552.115478515625	52.79943084716797	462.074951171875	523.8131103515625	292.5374145507812	372.7825622558594	691.0552978515625	31.58532905578613	269.4546813964844	688.9789428710938	44.21331787109375	356.5027465820312	575.4610595703125	36.30924606323242	338.6653137207031	585.2744140625	72.05831146240234	548.4544677734375	873.7078857421875	547.6305541992188	52.41792678833008	895.7593994140625	812.1891479492188	131.9264831542969	887.2911376953125	25.55886840820312	15.90698623657227	893.5723266601562	413.9994201660156	37.59268188476562	832.7987060546875	76.83244323730469	-202.4785003662109	790.8547973632812	53.64836883544922	-150.4993591308594	906.7633056640625	46.40516662597656	-114.5781402587891	836.669677734375	22.74799156188965	72.59944152832031	
403	4.02	760.167236328125	1097.65283203125	324.1099243164062	626.0170288085938	1102.116333007812	306.637451171875	687.1797485351562	1133.859497070312	322.5558471679688	716.8352661132812	1346.5478515625	116.4172515869141	669.2570190429688	1281.718872070312	368.1114807128906	650.0947875976562	1575.362426757812	343.711669921875	703.124267578125	1478.819458007812	158.9996643066406	729.8191528320312	1388.921997070312	404.650390625	548.2927856445312	1552.598876953125	324.3347778320312	504.480712890625	1541.833984375	223.7202758789062	438.9877319335938	1408.140991210938	204.5390014648438	442.0670471191406	1200.994750976562	124.1317520141602	483.529541015625	1168.6474609375	197.2138519287109	541.9240112304688	1003.504638671875	-45.7531623840332	503.1681823730469	944.9547729492188	11.17467308044434	456.9557800292969	1098.80908203125	68.52476501464844	584.4265747070312	835.0101928710938	-132.4392852783203	518.518798828125	889.1603393554688	-45.31507110595703	545.12646484375	929.2695922851562	-94.95185852050781	839.6842651367188	1564.237182617188	326.9221496582031	898.5867309570312	1491.501953125	357.3609313964844	923.1752319335938	1198.739990234375	369.5402526855469	828.7283935546875	1194.852416992188	344.4408569335938	961.1748046875	956.0130615234375	228.8612365722656	969.2637329101562	940.3739624023438	309.9976806640625	947.3976440429688	1126.496459960938	351.3838195800781	959.7600708007812	761.0408935546875	201.2704315185547	977.7323608398438	848.7953491210938	203.9960632324219	985.194580078125	840.688720703125	276.5025329589844	738.6651611328125	1753.971435546875	318.8972778320312	603.2075805664062	1818.837036132812	157.46875	732.63427734375	1835.810302734375	160.3252105712891	605.688720703125	1741.338989257812	324.1123962402344	527.7144165039062	1020.746276855469	198.5147705078125	892.3567504882812	1010.562377929688	202.6675872802734	848.691162109375	1089.341186523438	123.2959899902344	582.8836669921875	1086.998168945312	95.88043975830078	576.178466796875	513.9265747070312	210.7790832519531	543.0536499023438	663.592041015625	212.8976745605469	552.4343872070312	55.43114471435547	461.2972717285156	525.6920166015625	294.5291137695312	368.5524597167969	690.9702758789062	31.42184638977051	269.1630249023438	688.9375610351562	44.78489685058594	355.8587646484375	575.6046142578125	36.47725296020508	338.3849792480469	585.9818115234375	76.31324768066406	547.2816162109375	875.6454467773438	548.0237426757812	45.55544281005859	898.4596557617188	813.1270751953125	123.6250152587891	888.046142578125	25.26267051696777	14.83983612060547	895.3211059570312	414.1170654296875	31.54273986816406	831.7916259765625	72.24592590332031	-205.0221099853516	790.3695678710938	50.74340438842773	-151.8188781738281	906.633056640625	44.14269638061523	-116.547981262207	837.6554565429688	23.69009208679199	71.85295867919922	
404	4.03	764.441650390625	1098.440185546875	316.3074645996094	630.172607421875	1102.490966796875	299.9284057617188	691.3965454101562	1134.469116210938	315.4368896484375	719.6304931640625	1347.478515625	109.504753112793	673.616943359375	1282.081665039062	361.4547119140625	654.284423828125	1575.761474609375	337.9340515136719	706.2418823242188	1479.596557617188	152.6922302246094	734.4031982421875	1389.1513671875	397.7789306640625	552.3704223632812	1552.923706054688	319.0730895996094	507.9578857421875	1542.351196289062	218.7232666015625	442.5595092773438	1408.49560546875	200.1035614013672	444.8217468261719	1200.8916015625	120.9914245605469	486.94189453125	1169.268798828125	194.028564453125	542.0671997070312	999.6848754882812	-46.33843994140625	503.6840209960938	942.6677856445312	12.02761363983154	458.7912292480469	1097.7880859375	66.86336517333984	582.3912963867188	829.1046142578125	-129.9349365234375	518.3729858398438	885.486572265625	-43.13288497924805	544.1996459960938	924.3922119140625	-94.01226806640625	843.7734985351562	1564.686645507812	320.0520324707031	902.8630981445312	1491.858276367188	349.9228210449219	927.6696166992188	1199.07763671875	360.8272705078125	833.068115234375	1195.200073242188	336.1337280273438	965.068603515625	956.8605346679688	219.0989837646484	973.6028442382812	940.9749145507812	300.1533508300781	951.8211669921875	1126.934936523438	342.2635803222656	963.5789794921875	761.9703979492188	190.9607238769531	981.5240478515625	849.7188110351562	193.8282165527344	989.3895874023438	841.4037475585938	266.2699584960938	742.5896606445312	1754.432739257812	313.1902465820312	606.3859252929688	1819.771118164062	152.5670471191406	735.8289184570312	1836.743041992188	154.9038696289062	609.6321411132812	1741.759399414062	318.9796752929688	531.4891357421875	1020.78662109375	192.6837615966797	895.9857177734375	1012.018005371094	194.1244659423828	851.7368774414062	1090.573608398438	114.9810409545898	585.9500732421875	1087.568115234375	89.62242126464844	578.9491577148438	513.70458984375	202.2516021728516	546.4098510742188	663.5823974609375	205.2743682861328	552.7850952148438	58.36256408691406	460.3404541015625	527.6605834960938	296.728759765625	363.9799499511719	690.8530883789062	31.22611999511719	268.7907104492188	688.8997192382812	45.44091796875	355.1058959960938	575.7774047851562	36.64569091796875	338.0780944824219	586.7974243164062	81.04806518554688	545.8416137695312	877.7590942382812	548.4896240234375	38.84881973266602	901.2617797851562	814.2155151367188	115.396842956543	888.8726196289062	24.97595596313477	13.90671062469482	897.248046875	414.2941589355469	25.7362060546875	831.3589477539062	68.24493408203125	-207.300048828125	790.3649291992188	48.49041366577148	-152.9743041992188	906.891357421875	42.22755813598633	-118.2200241088867	838.696044921875	24.48534965515137	71.20165252685547	
405	4.04	768.7385864257812	1099.317260742188	308.5441284179688	634.3582153320312	1102.936767578125	293.33642578125	695.6358642578125	1135.225341796875	308.4017639160156	722.3546752929688	1348.5009765625	102.6364440917969	677.9804077148438	1282.55859375	354.8143005371094	658.489990234375	1576.28955078125	332.1974182128906	709.3040161132812	1480.478637695312	146.3923645019531	738.9967651367188	1389.510498046875	390.8906555175781	556.4346923828125	1553.383056640625	313.8435668945312	511.4205627441406	1543.036376953125	213.7785034179688	446.06298828125	1409.066528320312	195.7029571533203	447.5173034667969	1200.952514648438	118.0155715942383	490.3270874023438	1170.101318359375	190.997314453125	542.0941772460938	995.8942260742188	-46.48420333862305	504.105712890625	940.4733276367188	13.37813568115234	460.5468444824219	1096.926513671875	65.45965576171875	580.2288208007812	823.1701049804688	-126.7139434814453	518.1364135742188	881.9498291015625	-40.33203887939453	543.1656494140625	919.5188598632812	-92.51400756835938	847.8447875976562	1565.269653320312	313.1266784667969	907.1369018554688	1492.358520507812	342.4158325195312	932.1720581054688	1199.57373046875	352.1131896972656	837.414794921875	1195.695434570312	327.8501892089844	968.9812622070312	957.89306640625	209.2902221679688	977.9693603515625	941.7437133789062	290.2554016113281	956.2510375976562	1127.530517578125	333.1309509277344	967.41357421875	763.0869750976562	180.5626831054688	985.32568359375	850.8255615234375	183.5834503173828	993.6091918945312	842.2957153320312	255.9623107910156	746.50830078125	1754.978881835938	307.4747314453125	609.5567016601562	1820.804931640625	147.6801147460938	739.0216674804688	1837.7666015625	149.483154296875	613.56787109375	1742.27978515625	313.8515625	535.26953125	1020.921142578125	186.9989929199219	899.6590576171875	1013.58642578125	185.6107788085938	854.7293701171875	1091.92138671875	106.7143630981445	588.9580688476562	1088.1748046875	83.47637939453125	581.7153930664062	513.4439086914062	193.1273345947266	549.771728515625	663.555419921875	197.2850646972656	553.166748046875	61.60012435913086	459.1841735839844	529.7254638671875	299.1383056640625	359.0259704589844	690.7010498046875	31.01038932800293	268.3500061035156	688.8602905273438	46.18645858764648	354.2384948730469	575.9837646484375	36.80730056762695	337.7479553222656	587.7077026367188	86.27934265136719	544.082275390625	880.0138549804688	548.9605712890625	32.39489364624023	904.1487426757812	815.3870849609375	107.2572402954102	889.7111206054688	24.68447875976562	13.1274471282959	899.2947998046875	414.4689025878906	20.2530517578125	831.3662109375	64.77100372314453	-209.2845153808594	790.7188720703125	46.78179931640625	-153.9508972167969	907.4237060546875	40.63648986816406	-119.5828704833984	839.7465209960938	25.11669158935547	70.6732177734375	
